<svg xmlns="http://www.w3.org/2000/svg" xmlns:xlink="http://www.w3.org/1999/xlink" version="1.1" width="1000" height="1000" viewBox="0 0 1000 1000" xml:space="preserve">
<desc>Created with Fabric.js 3.5.0</desc>
<defs>
</defs>
<rect x="0" y="0" width="100%" height="100%" fill="#ffffff"/>
<g transform="matrix(15.625 0 0 15.625 500 500)" id="406885">
<g style="" vector-effect="non-scaling-stroke">
		<g transform="matrix(1 0 0 1 -25 -6.9)" id="american-express">
<path style="stroke: none; stroke-width: 1; stroke-dasharray: none; stroke-linecap: butt; stroke-dashoffset: 0; stroke-linejoin: miter; stroke-miterlimit: 4; is-custom-font: none; font-file-url: none; fill: rgb(47,171,247); fill-rule: nonzero; opacity: 1;" transform=" translate(-7, -25.1)" d="M 5.9 26.5 h 2.2 L 7 23.7 z" stroke-linecap="round"/>
</g>
		<g transform="matrix(1 0 0 1 -0.0367 -7.2)" id="american-express">
<path style="stroke: none; stroke-width: 1; stroke-dasharray: none; stroke-linecap: butt; stroke-dashoffset: 0; stroke-linejoin: miter; stroke-miterlimit: 4; is-custom-font: none; font-file-url: none; fill: rgb(34,143,224); fill-rule: nonzero; opacity: 1;" transform=" translate(-31.9633, -24.8)" d="M 33.2 24.1 c -0.2 -0.1 -0.5 -0.1 -0.8 -0.1 h -2 v 1.6 h 2 c 0.3 0 0.6 0 0.8 -0.1 c 0.2 -0.1 0.3 -0.4 0.3 -0.7 c 0.1 -0.4 -0.1 -0.6 -0.3 -0.7 z" stroke-linecap="round"/>
</g>
		<g transform="matrix(1 0 0 1 -2.2 -5.95)" id="american-express">
<path style="stroke: none; stroke-width: 1; stroke-dasharray: none; stroke-linecap: butt; stroke-dashoffset: 0; stroke-linejoin: miter; stroke-miterlimit: 4; is-custom-font: none; font-file-url: none; fill: rgb(5,113,193); fill-rule: nonzero; opacity: 1;" transform=" translate(-29.8, -26.05)" d="M 54.6 21.1 v 1.2 l -0.6 -1.2 h -4.7 v 1.2 l -0.6 -1.2 h -6.4 c -1.1 0 -2 0.2 -2.8 0.6 v -0.6 H 35 v 0.6 c -0.5 -0.4 -1.1 -0.6 -1.9 -0.6 H 17 l -1.1 2.5 l -1.1 -2.5 H 9.7 v 1.2 l -0.6 -1.2 H 4.8 l -2 4.7 L 0.5 31 h 5.1 l 0.6 -1.6 h 1.4 l 0.6 1.6 H 14 v -1.2 l 0.5 1.2 h 2.9 l 0.5 -1.2 V 31 h 13.9 v -2.6 h 0.2 c 0.2 0 0.2 0 0.2 0.3 v 2.2 h 7.2 v -0.6 c 0.6 0.3 1.5 0.6 2.7 0.6 h 3 l 0.6 -1.6 h 1.4 l 0.6 1.6 h 5.8 v -1.5 l 0.9 1.5 h 4.7 v -9.8 h -4.5 z m -33.8 8.4 h -1.7 V 24 l -2.4 5.5 h -1.5 L 12.8 24 v 5.5 H 9.4 L 8.7 28 H 5.3 l -0.6 1.6 H 2.8 l 3 -7.1 h 2.5 l 2.8 6.7 v -6.7 h 2.7 l 2.2 4.8 l 2 -4.8 h 2.8 v 7 z m 6.8 -5.5 h -3.9 v 1.3 h 3.8 v 1.4 h -3.8 v 1.4 h 3.9 v 1.5 H 22 v -7.1 h 5.6 V 24 z m 7.5 2.9 c 0.2 0.4 0.3 0.7 0.3 1.3 v 1.4 h -1.7 v -0.9 c 0 -0.4 0 -1 -0.3 -1.4 c -0.3 -0.3 -0.6 -0.3 -1.2 -0.3 h -1.8 v 2.6 h -1.7 v -7.1 h 3.8 c 0.9 0 1.5 0 2 0.3 s 0.8 0.8 0.8 1.6 c 0 1.1 -0.7 1.7 -1.2 1.9 c 0.5 0.1 0.8 0.4 1 0.6 z m 3 2.6 h -1.7 v -7.1 h 1.7 v 7.1 z m 19.7 0 h -2.4 l -3.2 -5.3 v 5.3 h -3.4 l -0.6 -1.5 h -3.5 l -0.6 1.6 h -1.9 c -0.8 0 -1.8 -0.2 -2.4 -0.8 c -0.6 -0.6 -0.9 -1.4 -0.9 -2.7 c 0 -1 0.2 -2 0.9 -2.8 c 0.5 -0.6 1.4 -0.8 2.5 -0.8 h 1.6 V 24 h -1.6 c -0.6 0 -0.9 0.1 -1.3 0.4 c -0.3 0.3 -0.5 0.9 -0.5 1.6 c 0 0.8 0.1 1.3 0.5 1.7 c 0.3 0.3 0.7 0.4 1.2 0.4 h 0.7 l 2.3 -5.5 h 2.5 l 2.8 6.7 v -6.7 H 53 l 2.9 4.9 v -4.9 h 1.7 v 6.9 z" stroke-linecap="round"/>
</g>
		<g transform="matrix(1 0 0 1 4.65 0.3)" id="american-express">
<path style="stroke: none; stroke-width: 1; stroke-dasharray: none; stroke-linecap: butt; stroke-dashoffset: 0; stroke-linejoin: miter; stroke-miterlimit: 4; is-custom-font: none; font-file-url: none; fill: rgb(34,143,224); fill-rule: nonzero; opacity: 1;" transform=" translate(-36.65, -32.3)" d="M 45.3 26.5 h 2.3 l -1.1 -2.8 z M 28.3 40.9 v -5.7 L 25.7 38 z" stroke-linecap="round"/>
</g>
		<g transform="matrix(1 0 0 1 -11.4 6)" id="american-express">
<path style="stroke: none; stroke-width: 1; stroke-dasharray: none; stroke-linecap: butt; stroke-dashoffset: 0; stroke-linejoin: miter; stroke-miterlimit: 4; is-custom-font: none; font-file-url: none; fill: rgb(47,171,247); fill-rule: nonzero; opacity: 1;" transform=" translate(-20.6, -38)" d="M 17.6 35.9 v 1.3 h 3.7 v 1.4 h -3.7 v 1.5 h 4.1 l 1.9 -2.1 l -1.8 -2.1 z" stroke-linecap="round"/>
</g>
		<g transform="matrix(1 0 0 1 -0.4 4.8)" id="american-express">
<path style="stroke: none; stroke-width: 1; stroke-dasharray: none; stroke-linecap: butt; stroke-dashoffset: 0; stroke-linejoin: miter; stroke-miterlimit: 4; is-custom-font: none; font-file-url: none; fill: rgb(34,143,224); fill-rule: nonzero; opacity: 1;" transform=" translate(-31.6, -36.8)" d="M 32.1 35.9 H 30 v 1.8 h 2.2 c 0.6 0 1 -0.3 1 -0.9 c -0.1 -0.6 -0.5 -0.9 -1.1 -0.9 z" stroke-linecap="round"/>
</g>
		<g transform="matrix(1 0 0 1 6.95 6.05)" id="american-express">
<path style="stroke: none; stroke-width: 1; stroke-dasharray: none; stroke-linecap: butt; stroke-dashoffset: 0; stroke-linejoin: miter; stroke-miterlimit: 4; is-custom-font: none; font-file-url: none; fill: rgb(5,113,193); fill-rule: nonzero; opacity: 1;" transform=" translate(-38.95, -38.05)" d="M 63 37.6 v -4.5 h -4.2 c -0.9 0 -1.6 0.2 -2.1 0.6 v -0.6 h -4.6 c -0.7 0 -1.6 0.2 -2 0.6 v -0.6 H 42 v 0.6 c -0.6 -0.5 -1.7 -0.6 -2.2 -0.6 h -5.4 v 0.6 c -0.5 -0.5 -1.7 -0.6 -2.3 -0.6 h -6 l -1.4 1.5 l -1.3 -1.5 h -9 v 9.8 h 8.8 l 1.4 -1.5 l 1.3 1.5 h 5.4 v -2.3 h 0.7 c 0.7 0 1.6 0 2.3 -0.3 V 43 h 4.5 v -2.6 h 0.2 c 0.3 0 0.3 0 0.3 0.3 V 43 h 13.6 c 0.9 0 1.8 -0.2 2.3 -0.6 v 0.6 h 4.3 c 0.9 0 1.8 -0.1 2.4 -0.5 c 1 -0.6 1.6 -1.7 1.6 -3 c 0 -0.7 -0.2 -1.4 -0.5 -1.9 z m -31 1.6 h -2 v 2.4 h -3.2 l -2 -2.3 l -2.1 2.3 h -6.6 v -7.1 h 6.7 l 2 2.3 l 2.1 -2.3 h 5.3 c 1.3 0 2.8 0.4 2.8 2.3 c -0.1 2 -1.5 2.4 -3 2.4 z m 10 -0.4 c 0.2 0.3 0.3 0.7 0.3 1.3 v 1.4 h -1.7 v -0.9 c 0 -0.4 0 -1.1 -0.3 -1.4 c -0.2 -0.3 -0.6 -0.3 -1.2 -0.3 h -1.8 v 2.6 h -1.7 v -7.1 h 3.8 c 0.8 0 1.5 0 2 0.3 s 0.9 0.8 0.9 1.6 c 0 1.1 -0.7 1.7 -1.2 1.9 c 0.5 0.2 0.8 0.4 0.9 0.6 z m 6.9 -2.9 H 45 v 1.3 h 3.8 v 1.4 H 45 V 40 h 3.9 v 1.5 h -5.6 v -7.1 h 5.6 v 1.5 z m 4.2 5.6 h -3.2 V 40 h 3.2 c 0.3 0 0.5 0 0.7 -0.2 c 0.1 -0.1 0.2 -0.3 0.2 -0.5 s -0.1 -0.4 -0.2 -0.5 c -0.1 -0.1 -0.3 -0.2 -0.6 -0.2 c -1.6 -0.1 -3.5 0 -3.5 -2.2 c 0 -1 0.6 -2.1 2.4 -2.1 h 3.3 V 36 h -3.1 c -0.3 0 -0.5 0 -0.7 0.1 c -0.2 0.1 -0.2 0.3 -0.2 0.5 c 0 0.3 0.2 0.4 0.4 0.5 c 0.2 0.1 0.4 0.1 0.6 0.1 h 0.9 c 0.9 0 1.5 0.2 1.9 0.6 c 0.3 0.3 0.5 0.8 0.5 1.5 c 0 1.5 -0.9 2.2 -2.6 2.2 z m 8.6 -0.7 c -0.4 0.4 -1.1 0.7 -2.1 0.7 h -3.2 V 40 h 3.2 c 0.3 0 0.5 0 0.7 -0.2 c 0.1 -0.1 0.2 -0.3 0.2 -0.5 s -0.1 -0.4 -0.2 -0.5 c -0.1 -0.1 -0.3 -0.2 -0.6 -0.2 c -1.6 -0.1 -3.5 0 -3.5 -2.2 c 0 -1 0.6 -2.1 2.4 -2.1 h 3.3 V 36 h -3 c -0.3 0 -0.5 0 -0.7 0.1 c -0.2 0.1 -0.2 0.3 -0.2 0.5 c 0 0.3 0.1 0.4 0.4 0.5 c 0.2 0.1 0.4 0.1 0.6 0.1 h 0.9 c 0.9 0 1.5 0.2 1.9 0.6 c 0.1 0 0.1 0.1 0.1 0.1 c 0.3 0.4 0.4 0.9 0.4 1.4 c 0 0.6 -0.2 1.1 -0.6 1.5 z" stroke-linecap="round"/>
</g>
		<g transform="matrix(1 0 0 1 6.9633 4.8)" id="american-express">
<path style="stroke: none; stroke-width: 1; stroke-dasharray: none; stroke-linecap: butt; stroke-dashoffset: 0; stroke-linejoin: miter; stroke-miterlimit: 4; is-custom-font: none; font-file-url: none; fill: rgb(34,143,224); fill-rule: nonzero; opacity: 1;" transform=" translate(-38.9633, -36.8)" d="M 40.2 36.1 c -0.2 -0.1 -0.5 -0.1 -0.8 -0.1 h -2 v 1.6 h 2 c 0.3 0 0.6 0 0.8 -0.1 c 0.2 -0.1 0.3 -0.4 0.3 -0.7 c 0.1 -0.4 -0.1 -0.6 -0.3 -0.7 z" stroke-linecap="round"/>
</g>
		<g transform="matrix(1 0 0 1 4.65 0.3)" id="american-express">
<path style="stroke: none; stroke-width: 1; stroke-dasharray: none; stroke-linecap: butt; stroke-dashoffset: 0; stroke-linejoin: miter; stroke-miterlimit: 4; is-custom-font: none; font-file-url: none; fill: rgb(34,143,224); fill-rule: nonzero; opacity: 1;" transform=" translate(-36.65, -32.3)" d="M 33.2 24.1 c -0.2 -0.1 -0.5 -0.1 -0.8 -0.1 h -2 v 1.6 h 2 c 0.3 0 0.6 0 0.8 -0.1 c 0.2 -0.1 0.3 -0.4 0.3 -0.7 c 0.1 -0.4 -0.1 -0.6 -0.3 -0.7 z M 45.3 26.5 h 2.3 l -1.1 -2.8 z M 28.3 40.9 v -5.7 L 25.7 38 z M 32.1 35.9 H 30 v 1.8 h 2.2 c 0.6 0 1 -0.3 1 -0.9 c -0.1 -0.6 -0.5 -0.9 -1.1 -0.9 z M 40.2 36.1 c -0.2 -0.1 -0.5 -0.1 -0.8 -0.1 h -2 v 1.6 h 2 c 0.3 0 0.6 0 0.8 -0.1 c 0.2 -0.1 0.3 -0.4 0.3 -0.7 c 0.1 -0.4 -0.1 -0.6 -0.3 -0.7 z" stroke-linecap="round"/>
</g>
		<g transform="matrix(1 0 0 1 -9.1 6)" id="american-express">
<path style="stroke: none; stroke-width: 1; stroke-dasharray: none; stroke-linecap: butt; stroke-dashoffset: 0; stroke-linejoin: miter; stroke-miterlimit: 4; is-custom-font: none; font-file-url: none; fill: rgb(47,171,247); fill-rule: nonzero; opacity: 1;" transform=" translate(-22.9, -38)" d="M 31.4 41.3 L 30 39.8 v 1.7 h -3.3 l -2 -2.3 l -2.2 2.3 h -6.6 v -7 h 6.7 l 2.1 2.3 l 1 -1.2 l -2.5 -2.5 h -8.8 v 9.8 h 8.8 l 1.5 -1.5 l 1.3 1.5 h 5.4 z" stroke-linecap="round"/>
</g>
		<g transform="matrix(1 0 0 1 -21.25 -6)" id="american-express">
<path style="stroke: none; stroke-width: 1; stroke-dasharray: none; stroke-linecap: butt; stroke-dashoffset: 0; stroke-linejoin: miter; stroke-miterlimit: 4; is-custom-font: none; font-file-url: none; fill: rgb(47,171,247); fill-rule: nonzero; opacity: 1;" transform=" translate(-10.75, -26)" d="m 21 30.9 l -1.3 -1.4 h -0.6 v -0.6 l -1.5 -1.5 l -1 2.1 h -1.4 L 12.8 24 v 5.5 H 9.4 L 8.7 28 H 5.3 l -0.7 1.5 H 2.8 l 3 -7 h 2.5 l 2.8 6.7 v -6.7 h 1.5 l -1.4 -1.4 H 9.7 v 1.2 l -0.5 -1.2 H 4.8 l -2 4.7 l -2.3 5.1 h 5.2 l 0.6 -1.5 h 1.4 l 0.7 1.5 H 14 v -1.2 l 0.5 1.2 h 2.9 l 0.5 -1.2 v 1.2 z" stroke-linecap="round"/>
</g>
		<g transform="matrix(1 0 0 1 -16.4 -6)" id="american-express">
<path style="stroke: none; stroke-width: 1; stroke-dasharray: none; stroke-linecap: butt; stroke-dashoffset: 0; stroke-linejoin: miter; stroke-miterlimit: 4; is-custom-font: none; font-file-url: none; fill: rgb(47,171,247); fill-rule: nonzero; opacity: 1;" transform=" translate(-15.6, -26)" d="m 16.4 26.3 l -1.6 -1.6 l 1.2 2.6 z" stroke-linecap="round"/>
</g>
		<g transform="matrix(1 0 0 1 10.9 5.818)" id="american-express">
<path style="stroke: none; stroke-width: 1; stroke-dasharray: none; stroke-linecap: butt; stroke-dashoffset: 0; stroke-linejoin: miter; stroke-miterlimit: 4; is-custom-font: none; font-file-url: none; fill: rgb(34,143,224); fill-rule: nonzero; opacity: 1;" transform=" translate(-42.9, -37.818)" d="M 61.9 42.4 c 0.9 -0.6 1.5 -1.6 1.6 -2.7 l -1.4 -1.4 c 0.1 0.3 0.2 0.6 0.2 1 c 0 0.6 -0.2 1.1 -0.6 1.5 c -0.4 0.4 -1.1 0.7 -2.1 0.7 h -3.2 V 40 h 3.2 c 0.3 0 0.5 0 0.7 -0.2 c 0.1 -0.1 0.2 -0.3 0.2 -0.5 s -0.1 -0.4 -0.2 -0.5 c -0.1 -0.1 -0.3 -0.2 -0.6 -0.2 c -1.6 -0.1 -3.5 0 -3.5 -2.2 c 0 -1 0.6 -1.9 2.1 -2.1 l -1.1 -1.1 c -0.2 0.1 -0.3 0.2 -0.4 0.2 v -0.6 h -4.6 c -0.7 0 -1.6 0.2 -2 0.6 v -0.6 H 42 v 0.6 c -0.6 -0.5 -1.7 -0.6 -2.2 -0.6 h -5.4 v 0.6 c -0.5 -0.5 -1.7 -0.6 -2.3 -0.6 h -6 l -1.4 1.5 l -1.3 -1.5 h -1.1 l 3 3 l 1.5 -1.6 h 5.3 c 1.3 0 2.8 0.4 2.8 2.3 c 0 2 -1.4 2.4 -2.9 2.4 h -2 v 1.5 l 1.5 1.5 v -1.5 h 0.5 c 0.7 0 1.6 0 2.3 -0.3 v 2.7 h 4.5 v -2.6 h 0.2 c 0.3 0 0.3 0 0.3 0.3 v 2.3 h 13.6 c 0.9 0 1.8 -0.2 2.3 -0.6 v 0.6 h 4.3 c 0.8 0.1 1.7 0 2.4 -0.4 z M 42 38.8 c 0.2 0.3 0.3 0.7 0.3 1.3 v 1.4 h -1.7 v -0.9 c 0 -0.4 0 -1.1 -0.3 -1.4 c -0.2 -0.3 -0.6 -0.3 -1.2 -0.3 h -1.8 v 2.6 h -1.7 v -7.1 h 3.8 c 0.8 0 1.5 0 2 0.3 s 0.9 0.8 0.9 1.6 c 0 1.1 -0.7 1.7 -1.2 1.9 c 0.5 0.2 0.8 0.4 0.9 0.6 z m 6.9 -2.9 H 45 v 1.3 h 3.8 v 1.4 H 45 V 40 h 3.9 v 1.5 h -5.6 v -7.1 h 5.6 v 1.5 z m 4.2 5.6 h -3.2 V 40 h 3.2 c 0.3 0 0.5 0 0.7 -0.2 c 0.1 -0.1 0.2 -0.3 0.2 -0.5 s -0.1 -0.4 -0.2 -0.5 c -0.1 -0.1 -0.3 -0.2 -0.6 -0.2 c -1.6 -0.1 -3.5 0 -3.5 -2.2 c 0 -1 0.6 -2.1 2.4 -2.1 h 3.3 V 36 h -3.1 c -0.3 0 -0.5 0 -0.7 0.1 c -0.2 0.1 -0.2 0.3 -0.2 0.5 c 0 0.3 0.2 0.4 0.4 0.5 c 0.2 0.1 0.4 0.1 0.6 0.1 h 0.9 c 0.9 0 1.5 0.2 1.9 0.6 c 0.3 0.3 0.5 0.8 0.5 1.5 c 0 1.5 -0.9 2.2 -2.6 2.2 z" stroke-linecap="round"/>
</g>
		<g transform="matrix(1 0 0 1 27.55 4.75)" id="american-express">
<path style="stroke: none; stroke-width: 1; stroke-dasharray: none; stroke-linecap: butt; stroke-dashoffset: 0; stroke-linejoin: miter; stroke-miterlimit: 4; is-custom-font: none; font-file-url: none; fill: rgb(34,143,224); fill-rule: nonzero; opacity: 1;" transform=" translate(-59.55, -36.75)" d="M 57.9 36.6 c 0 0.3 0.1 0.4 0.4 0.5 c 0.2 0.1 0.4 0.1 0.6 0.1 h 0.9 c 0.6 0 1 0.1 1.4 0.3 L 59.7 36 h -0.9 c -0.3 0 -0.5 0 -0.7 0.1 c -0.1 0.1 -0.2 0.3 -0.2 0.5 z" stroke-linecap="round"/>
</g>
		<g transform="matrix(1 0 0 1 19.8 -4)" id="american-express">
<path style="stroke: none; stroke-width: 1; stroke-dasharray: none; stroke-linecap: butt; stroke-dashoffset: 0; stroke-linejoin: miter; stroke-miterlimit: 4; is-custom-font: none; font-file-url: none; fill: rgb(34,143,224); fill-rule: nonzero; opacity: 1;" transform=" translate(-51.8, -28)" d="m 54.4 30.6 l 0.2 0.3 h 0.1 z M 48.9 25.1 l 1.7 4.1 v -2.4 z" stroke-linecap="round"/>
</g>
		<g transform="matrix(1 0 0 1 -0.05 -5.9)" id="american-express">
<path style="stroke: none; stroke-width: 1; stroke-dasharray: none; stroke-linecap: butt; stroke-dashoffset: 0; stroke-linejoin: miter; stroke-miterlimit: 4; is-custom-font: none; font-file-url: none; fill: rgb(34,143,224); fill-rule: nonzero; opacity: 1;" transform=" translate(-31.95, -26.1)" d="M 31.8 28.4 h 0.2 c 0.2 0 0.2 0 0.2 0.3 v 2.2 h 7.2 v -0.6 c 0.6 0.3 1.5 0.6 2.7 0.6 h 3 l 0.6 -1.6 h 1.4 l 0.6 1.6 h 5.8 v -1 l -1.4 -1.4 v 1.1 h -3.4 l -0.5 -1.6 h -3.5 l -0.6 1.6 h -1.9 c -0.8 0 -1.8 -0.2 -2.4 -0.8 c -0.6 -0.6 -0.9 -1.4 -0.9 -2.7 c 0 -1 0.2 -2 0.9 -2.8 c 0.5 -0.6 1.4 -0.8 2.5 -0.8 h 1.6 V 24 h -1.6 c -0.6 0 -0.9 0.1 -1.3 0.4 c -0.3 0.3 -0.5 0.9 -0.5 1.6 c 0 0.8 0.1 1.3 0.5 1.7 c 0.3 0.3 0.7 0.4 1.2 0.4 h 0.7 l 2.3 -5.5 h 1 l -1.4 -1.4 h -2.6 c -1.1 0 -2 0.2 -2.8 0.6 v -0.6 H 35 v 0.6 c -0.5 -0.4 -1.1 -0.6 -1.9 -0.6 H 17 l -1.1 2.5 l -1.1 -2.5 h -4.4 l 1.4 1.4 h 2 l 1.7 3.7 l 0.6 0.6 l 1.8 -4.4 h 2.8 v 7.1 H 19 v -5.5 l -1.7 4 l 2.9 2.9 h 11.5 l 0.1 -2.6 z m 4.6 -5.9 h 1.7 v 7.1 h -1.7 v -7.1 z M 27.6 24 h -3.9 v 1.3 h 3.8 v 1.4 h -3.8 v 1.4 h 3.9 v 1.5 H 22 v -7.1 h 5.6 V 24 z m 2.8 5.5 h -1.7 v -7.1 h 3.8 c 0.9 0 1.5 0 2 0.3 s 0.8 0.8 0.8 1.6 c 0 1.1 -0.7 1.7 -1.2 1.9 c 0.4 0.1 0.7 0.4 0.8 0.6 c 0.2 0.4 0.3 0.7 0.3 1.3 v 1.4 h -1.7 v -0.9 c 0 -0.4 0 -1 -0.3 -1.4 c -0.1 -0.2 -0.4 -0.2 -1 -0.2 h -1.8 v 2.5 z" stroke-linecap="round"/>
</g>
</g>
</g>
</svg>