<svg xmlns="http://www.w3.org/2000/svg" xmlns:xlink="http://www.w3.org/1999/xlink" version="1.1" width="1000" height="1000" viewBox="0 0 1000 1000" xml:space="preserve">
<desc>Created with Fabric.js 3.5.0</desc>
<defs>
</defs>
<rect x="0" y="0" width="100%" height="100%" fill="#ffffff"/>
<g transform="matrix(5 0 0 5 500 500)" id="396220">
<g style="" vector-effect="non-scaling-stroke">
		<g transform="matrix(1 0 0 1 95.5 21.1)" id="Livello_1">
<path style="stroke: none; stroke-width: 1; stroke-dasharray: none; stroke-linecap: butt; stroke-dashoffset: 0; stroke-linejoin: miter; stroke-miterlimit: 4; is-custom-font: none; font-file-url: none; fill: rgb(0,162,229); fill-rule: nonzero; opacity: 1;" transform=" translate(-195.5, -98.9)" d="M 198.1 100.1 v -2.4 h -0.6 l -0.7 1.6 l -0.7 -1.6 h -0.6 v 2.4 h 0.4 v -1.8 l 0.7 1.6 h 0.5 l 0.7 -1.6 v 1.8 H 198.1 z M 194.1 100.1 v -2 h 0.8 v -0.4 h -2 v 0.4 h 0.8 v 2 H 194.1 z" stroke-linecap="round"/>
</g>
		<g transform="matrix(1 0 0 1 -0.05 -16)" id="Livello_1">
<path style="stroke: none; stroke-width: 1; stroke-dasharray: none; stroke-linecap: butt; stroke-dashoffset: 0; stroke-linejoin: miter; stroke-miterlimit: 4; is-custom-font: none; font-file-url: none; fill: rgb(115,117,207); fill-rule: nonzero; opacity: 1;" transform=" translate(-99.95, -61.8)" d="M 127 110.4 H 72.9 V 13.2 H 127 V 110.4 z" stroke-linecap="round"/>
</g>
		<g transform="matrix(1 0 0 1 -50 -16)" id="Livello_1">
<path style="stroke: none; stroke-width: 1; stroke-dasharray: none; stroke-linecap: butt; stroke-dashoffset: 0; stroke-linejoin: miter; stroke-miterlimit: 4; is-custom-font: none; font-file-url: none; fill: rgb(235,0,27); fill-rule: nonzero; opacity: 1;" transform=" translate(-50, -61.8)" d="M 76.4 61.8 c 0 -19.7 9.2 -37.3 23.6 -48.6 C 89.5 4.9 76.2 0 61.8 0 C 27.7 0 0 27.7 0 61.8 s 27.7 61.8 61.8 61.8 c 14.4 0 27.7 -4.9 38.2 -13.2 C 85.6 99.1 76.4 81.5 76.4 61.8" stroke-linecap="round"/>
</g>
		<g transform="matrix(1 0 0 1 50 -16)" id="Livello_1">
<path style="stroke: none; stroke-width: 1; stroke-dasharray: none; stroke-linecap: butt; stroke-dashoffset: 0; stroke-linejoin: miter; stroke-miterlimit: 4; is-custom-font: none; font-file-url: none; fill: rgb(0,162,229); fill-rule: nonzero; opacity: 1;" transform=" translate(-150, -61.8)" d="M 200 61.8 c 0 34.1 -27.7 61.8 -61.8 61.8 c -14.4 0 -27.7 -4.9 -38.2 -13.2 c 14.4 -11.3 23.6 -28.9 23.6 -48.6 s -9.2 -37.3 -23.6 -48.6 C 110.5 4.9 123.8 0 138.2 0 C 172.3 0 200 27.7 200 61.8" stroke-linecap="round"/>
</g>
		<g transform="matrix(1 0 0 1 -0.1 66.35)" id="Livello_1">
<path style="stroke: none; stroke-width: 1; stroke-dasharray: none; stroke-linecap: butt; stroke-dashoffset: 0; stroke-linejoin: miter; stroke-miterlimit: 4; is-custom-font: none; font-file-url: none; fill: rgb(0,0,0); fill-rule: nonzero; opacity: 1;" transform=" translate(-99.9, -144.15)" d="M 145.2 137.9 c 0.7 0 1.8 0.1 2.5 0.4 l -1.1 3.4 c -0.8 -0.3 -1.5 -0.4 -2.2 -0.4 c -2.3 0 -3.5 1.5 -3.5 4.2 v 9.2 h -3.6 v -16.4 h 3.5 v 2 C 141.8 138.8 143.2 137.9 145.2 137.9 M 132 141.5 h -5.8 v 7.4 c 0 1.6 0.6 2.7 2.4 2.7 c 0.9 0 2.1 -0.3 3.2 -0.9 l 1 3.1 c -1.1 0.8 -2.9 1.3 -4.5 1.3 c -4.2 0 -5.7 -2.3 -5.7 -6.1 v -7.5 h -3.3 v -3.3 h 3.3 v -5 h 3.6 v 5 h 5.8 V 141.5 z M 86.3 145 c 0.4 -2.4 1.8 -4 4.4 -4 c 2.3 0 3.8 1.4 4.2 4 H 86.3 z M 98.6 146.5 c 0 -5.1 -3.2 -8.6 -7.8 -8.6 c -4.8 0 -8.2 3.5 -8.2 8.6 c 0 5.2 3.5 8.6 8.4 8.6 c 2.5 0 4.7 -0.6 6.7 -2.3 l -1.8 -2.6 c -1.4 1.1 -3.1 1.7 -4.8 1.7 c -2.3 0 -4.4 -1.1 -4.9 -4 h 12.2 C 98.5 147.4 98.6 147 98.6 146.5 M 114.3 142.5 c -1 -0.6 -3 -1.4 -5.1 -1.4 c -2 0 -3.1 0.7 -3.1 1.9 c 0 1.1 1.2 1.4 2.8 1.6 l 1.7 0.2 c 3.6 0.5 5.7 2 5.7 4.9 c 0 3.1 -2.7 5.4 -7.5 5.4 c -2.7 0 -5.2 -0.7 -7.1 -2.1 l 1.7 -2.8 c 1.2 0.9 3 1.7 5.5 1.7 c 2.4 0 3.7 -0.7 3.7 -2 c 0 -0.9 -0.9 -1.4 -2.9 -1.7 l -1.7 -0.2 c -3.7 -0.5 -5.7 -2.2 -5.7 -4.8 c 0 -3.3 2.7 -5.3 6.8 -5.3 c 2.6 0 5 0.6 6.7 1.7 L 114.3 142.5 z M 158.3 141.2 c -0.7 0 -1.4 0.1 -2 0.4 c -0.6 0.3 -1.2 0.6 -1.6 1.1 s -0.8 1 -1.1 1.7 c -0.3 0.6 -0.4 1.4 -0.4 2.1 c 0 0.8 0.1 1.5 0.4 2.1 c 0.3 0.6 0.6 1.2 1.1 1.7 s 1 0.8 1.6 1.1 c 0.6 0.3 1.3 0.4 2 0.4 c 0.7 0 1.4 -0.1 2 -0.4 c 0.6 -0.3 1.2 -0.6 1.6 -1.1 c 0.5 -0.5 0.8 -1 1.1 -1.7 c 0.3 -0.6 0.4 -1.4 0.4 -2.1 c 0 -0.8 -0.1 -1.5 -0.4 -2.1 c -0.3 -0.6 -0.6 -1.2 -1.1 -1.7 c -0.5 -0.5 -1 -0.8 -1.6 -1.1 C 159.7 141.4 159 141.2 158.3 141.2 M 158.3 137.9 c 1.3 0 2.5 0.2 3.5 0.7 c 1.1 0.4 2 1 2.8 1.8 c 0.8 0.8 1.4 1.7 1.9 2.7 c 0.4 1.1 0.7 2.2 0.7 3.4 c 0 1.2 -0.2 2.4 -0.7 3.4 c -0.4 1.1 -1.1 2 -1.9 2.7 c -0.8 0.8 -1.7 1.4 -2.8 1.8 c -1.1 0.4 -2.3 0.7 -3.5 0.7 c -1.3 0 -2.5 -0.2 -3.5 -0.7 c -1.1 -0.4 -2 -1 -2.8 -1.8 c -0.8 -0.8 -1.4 -1.7 -1.9 -2.7 c -0.4 -1.1 -0.7 -2.2 -0.7 -3.4 c 0 -1.2 0.2 -2.4 0.7 -3.4 c 0.4 -1.1 1.1 -2 1.9 -2.7 c 0.8 -0.8 1.7 -1.4 2.8 -1.8 C 155.8 138.1 157 137.9 158.3 137.9 M 65.5 146.5 c 0 -2.9 1.9 -5.3 5 -5.3 c 3 0 4.9 2.3 4.9 5.3 c 0 3 -2 5.2 -4.9 5.2 C 67.4 151.7 65.5 149.4 65.5 146.5 M 78.8 146.5 v -8.2 h -3.6 v 2 c -1.1 -1.5 -2.8 -2.4 -5.2 -2.4 c -4.6 0 -8.2 3.6 -8.2 8.6 c 0 5 3.6 8.6 8.2 8.6 c 2.3 0 4 -0.9 5.2 -2.4 v 2 h 3.6 V 146.5 z M 58.7 154.7 v -10.3 c 0 -3.9 -2.5 -6.5 -6.5 -6.5 c -2.1 0 -4.3 0.6 -5.8 2.9 c -1.1 -1.8 -2.9 -2.9 -5.4 -2.9 c -1.7 0 -3.5 0.5 -4.8 2.4 v -2 h -3.6 v 16.4 h 3.6 v -9.1 c 0 -2.8 1.6 -4.4 4 -4.4 c 2.4 0 3.6 1.5 3.6 4.3 v 9.1 h 3.6 v -9.1 c 0 -2.8 1.7 -4.4 4 -4.4 c 2.4 0 3.6 1.5 3.6 4.3 v 9.1 H 58.7 z" stroke-linecap="round"/>
</g>
		<g transform="matrix(1 0 0 1 71.25 76.05)" id="Livello_1">
<path style="stroke: none; stroke-width: 1; stroke-dasharray: none; stroke-linecap: butt; stroke-dashoffset: 0; stroke-linejoin: miter; stroke-miterlimit: 4; is-custom-font: none; font-file-url: none; fill: rgb(0,0,0); fill-rule: nonzero; opacity: 1;" transform=" translate(-171.25, -153.85)" d="M 171 153.4 v 0.4 h 0.4 c 0.1 0 0.2 0 0.2 -0.1 c 0.1 0 0.1 -0.1 0.1 -0.2 s 0 -0.1 -0.1 -0.1 c 0 0 -0.1 -0.1 -0.2 -0.1 H 171 z M 171.4 153.2 c 0.2 0 0.3 0 0.4 0.1 c 0.1 0.1 0.2 0.2 0.2 0.4 c 0 0.1 0 0.2 -0.1 0.3 c -0.1 0.1 -0.2 0.1 -0.4 0.1 l 0.5 0.6 h -0.4 l -0.5 -0.6 H 171 v 0.6 h -0.3 v -1.5 H 171.4 z M 171.3 155.2 c 0.2 0 0.3 0 0.5 -0.1 c 0.2 -0.1 0.3 -0.2 0.4 -0.3 c 0.1 -0.1 0.2 -0.2 0.3 -0.4 c 0.1 -0.2 0.1 -0.3 0.1 -0.5 s 0 -0.3 -0.1 -0.5 c -0.1 -0.2 -0.2 -0.3 -0.3 -0.4 c -0.1 -0.1 -0.2 -0.2 -0.4 -0.3 c -0.1 -0.1 -0.3 -0.1 -0.5 -0.1 s -0.3 0 -0.5 0.1 c -0.2 0.1 -0.3 0.2 -0.4 0.3 c -0.1 0.1 -0.2 0.3 -0.3 0.4 c -0.1 0.2 -0.1 0.3 -0.1 0.5 s 0 0.3 0.1 0.5 c 0.1 0.2 0.2 0.3 0.3 0.4 c 0.1 0.1 0.3 0.2 0.4 0.3 C 171 155.2 171.1 155.2 171.3 155.2 M 171.3 152.3 c 0.2 0 0.4 0 0.6 0.1 c 0.2 0.1 0.4 0.2 0.5 0.3 c 0.1 0.1 0.3 0.3 0.4 0.5 c 0.1 0.2 0.1 0.4 0.1 0.6 c 0 0.2 0 0.4 -0.1 0.6 s -0.2 0.4 -0.4 0.5 c -0.2 0.1 -0.3 0.3 -0.5 0.4 c -0.2 0.1 -0.4 0.1 -0.6 0.1 c -0.2 0 -0.5 0 -0.7 -0.1 c -0.2 -0.1 -0.4 -0.2 -0.5 -0.4 c -0.1 -0.1 -0.3 -0.3 -0.4 -0.5 c -0.1 -0.2 -0.1 -0.4 -0.1 -0.6 c 0 -0.2 0 -0.4 0.1 -0.6 c 0.1 -0.2 0.2 -0.4 0.4 -0.5 c 0.1 -0.1 0.3 -0.3 0.5 -0.3 C 170.8 152.3 171.1 152.3 171.3 152.3" stroke-linecap="round"/>
</g>
</g>
</g>
</svg>