<svg xmlns="http://www.w3.org/2000/svg" xmlns:xlink="http://www.w3.org/1999/xlink" version="1.1" width="1000" height="1000" viewBox="0 0 1000 1000" xml:space="preserve">
<desc>Created with Fabric.js 3.5.0</desc>
<defs>
</defs>
<rect x="0" y="0" width="100%" height="100%" fill="#ffffff"></rect>
<g transform="matrix(1 0 0 1 500 500)" id="965344"  >
<g style="" vector-effect="non-scaling-stroke"   >
		<g transform="matrix(1 0 0 1 0 0)" id="Layer_1"  >
<rect style="stroke: none; stroke-width: 1; stroke-dasharray: none; stroke-linecap: butt; stroke-dashoffset: 0; stroke-linejoin: miter; stroke-miterlimit: 4; is-custom-font: none; font-file-url: none; fill: rgb(255,255,255); fill-rule: nonzero; opacity: 1;"  x="-500" y="-500" rx="0" ry="0" width="1000" height="1000" />
</g>
		<g transform="matrix(1 0 0 1 477.5 105.5)" id="Livello_1"  >
<path style="stroke: none; stroke-width: 1; stroke-dasharray: none; stroke-linecap: butt; stroke-dashoffset: 0; stroke-linejoin: miter; stroke-miterlimit: 4; is-custom-font: none; font-file-url: none; fill: rgb(0,162,229); fill-rule: nonzero; opacity: 1;"  transform=" translate(-977.5, -605.5)" d="M 990.5 611.5 v -12 h -3 l -3.5 8 l -3.5 -8 h -3 v 12 h 2 v -9 l 3.5 8 h 2.5 l 3.5 -8 v 9 h 1.5 Z M 970.5 611.5 v -10 h 4 v -2 h -10 v 2 h 4 v 10 h 2 Z" stroke-linecap="round" />
</g>
		<g transform="matrix(1 0 0 1 -0.25 -80)" id="Livello_1-2"  >
<path style="stroke: none; stroke-width: 1; stroke-dasharray: none; stroke-linecap: butt; stroke-dashoffset: 0; stroke-linejoin: miter; stroke-miterlimit: 4; is-custom-font: none; font-file-url: none; fill: rgb(115,117,207); fill-rule: nonzero; opacity: 1;"  transform=" translate(-499.75, -420)" d="M 635 663 h -270.5 V 177 h 270.5 v 486 Z" stroke-linecap="round" />
</g>
		<g transform="matrix(1 0 0 1 -250 -80)" id="Livello_1-3"  >
<path style="stroke: none; stroke-width: 1; stroke-dasharray: none; stroke-linecap: butt; stroke-dashoffset: 0; stroke-linejoin: miter; stroke-miterlimit: 4; is-custom-font: none; font-file-url: none; fill: rgb(235,0,27); fill-rule: nonzero; opacity: 1;"  transform=" translate(-250, -420)" d="M 382 420 c 0 -98.5 46 -186.5 118 -243 c -52.5 -41.5 -119 -66 -191 -66 C 138.5 111 0 249.5 0 420 s 138.5 309 309 309 c 72 0 138.5 -24.5 191 -66 c -72 -56.5 -118 -144.5 -118 -243" stroke-linecap="round" />
</g>
		<g transform="matrix(1 0 0 1 250 -80)" id="Livello_1-4"  >
<path style="stroke: none; stroke-width: 1; stroke-dasharray: none; stroke-linecap: butt; stroke-dashoffset: 0; stroke-linejoin: miter; stroke-miterlimit: 4; is-custom-font: none; font-file-url: none; fill: rgb(0,162,229); fill-rule: nonzero; opacity: 1;"  transform=" translate(-750, -420)" d="M 1000 420 c 0 170.5 -138.5 309 -309 309 c -72 0 -138.5 -24.5 -191 -66 c 72 -56.5 118 -144.5 118 -243 s -46 -186.5 -118 -243 c 52.5 -41.5 119 -66 191 -66 c 170.5 0 309 138.5 309 309" stroke-linecap="round" />
</g>
		<g transform="matrix(1 0 0 1 -46.66 331.75)" id="Livello_1-5"  >
<path style="stroke: none; stroke-width: 1; stroke-dasharray: none; stroke-linecap: butt; stroke-dashoffset: 0; stroke-linejoin: miter; stroke-miterlimit: 4; is-custom-font: none; font-file-url: none; fill: rgb(0,0,0); fill-rule: nonzero; opacity: 1;"  transform=" translate(-453.34, -831.75)" d="M 679.84 800.5 c 3.5 0 9 0.5 12.5 2 l -5.5 17 c -4 -1.5 -7.5 -2 -11 -2 c -11.5 0 -17.5 7.5 -17.5 21 v 46 h -18 v -82 h 17.5 v 10 c 5 -7.5 12 -12 22 -12 M 613.84 818.5 h -29 v 37 c 0 8 3 13.5 12 13.5 c 4.5 0 10.5 -1.5 16 -4.5 l 5 15.5 c -5.5 4 -14.5 6.5 -22.5 6.5 c -21 0 -28.5 -11.5 -28.5 -30.5 v -37.5 h -16.5 v -16.5 h 16.5 v -25 h 18 v 25 h 29 v 16.5 h 0 Z M 385.34 836 c 2 -12 9 -20 22 -20 c 11.5 0 19 7 21 20 h -43 Z M 446.84 843.5 c 0 -25.5 -16 -43 -39 -43 s -41 17.5 -41 43 s 17.5 43 42 43 c 12.5 0 23.5 -3 33.5 -11.5 l -9 -13 c -7 5.5 -15.5 8.5 -24 8.5 c -11.5 0 -22 -5.5 -24.5 -20 h 61 c 0.5 -2.5 1 -4.5 1 -7 M 525.34 823.5 c -5 -3 -15 -7 -25.5 -7 s -15.5 3.5 -15.5 9.5 c 0 5.5 6 7 14 8 l 8.5 1 c 18 2.5 28.5 10 28.5 24.5 c 0 15.5 -13.5 27 -37.5 27 c -13.5 0 -26 -3.5 -35.5 -10.5 l 8.5 -14 c 6 4.5 15 8.5 27.5 8.5 s 18.5 -3.5 18.5 -10 c 0 -4.5 -4.5 -7 -14.5 -8.5 l -8.5 -1 c -18.5 -2.5 -28.5 -11 -28.5 -24 c 0 -16.5 13.5 -26.5 34 -26.5 c 13 0 25 3 33.5 8.5 l -7.5 14.5 Z M 745.34 817 c -3.5 0 -7 0.5 -10 2 c -3 1.5 -6 3 -8 5.5 s -4 5 -5.5 8.5 c -1.5 3 -2 7 -2 10.5 c 0 4 0.5 7.5 2 10.5 c 1.5 3 3 6 5.5 8.5 s 5 4 8 5.5 s 6.5 2 10 2 s 7 -0.5 10 -2 c 3 -1.5 6 -3 8 -5.5 c 2.5 -2.5 4 -5 5.5 -8.5 c 1.5 -3 2 -7 2 -10.5 c 0 -4 -0.5 -7.5 -2 -10.5 c -1.5 -3 -3 -6 -5.5 -8.5 s -5 -4 -8 -5.5 c -3 -1 -6.5 -2 -10 -2 M 745.34 800.5 c 6.5 0 12.5 1 17.5 3.5 c 5.5 2 10 5 14 9 s 7 8.5 9.5 13.5 c 2 5.5 3.5 11 3.5 17 s -1 12 -3.5 17 c -2 5.5 -5.5 10 -9.5 13.5 c -4 4 -8.5 7 -14 9 c -5.5 2 -11.5 3.5 -17.5 3.5 c -6.5 0 -12.5 -1 -17.5 -3.5 c -5.5 -2 -10 -5 -14 -9 s -7 -8.5 -9.5 -13.5 c -2 -5.5 -3.5 -11 -3.5 -17 s 1 -12 3.5 -17 c 2 -5.5 5.5 -10 9.5 -13.5 c 4 -4 8.5 -7 14 -9 c 5 -2.5 11 -3.5 17.5 -3.5 M 281.34 843.5 c 0 -14.5 9.5 -26.5 25 -26.5 s 24.5 11.5 24.5 26.5 s -10 26 -24.5 26 c -15.5 0 -25 -11.5 -25 -26 M 347.84 843.5 v -41 h -18 v 10 c -5.5 -7.5 -14 -12 -26 -12 c -23 0 -41 18 -41 43 s 18 43 41 43 c 11.5 0 20 -4.5 26 -12 v 10 h 18 v -41 Z M 247.34 884.5 v -51.5 c 0 -19.5 -12.5 -32.5 -32.5 -32.5 c -10.5 0 -21.5 3 -29 14.5 c -5.5 -9 -14.5 -14.5 -27 -14.5 c -8.5 0 -17.5 2.5 -24 12 v -10 h -18 v 82 h 18 v -45.5 c 0 -14 8 -22 20 -22 s 18 7.5 18 21.5 v 45.5 h 18 v -45.5 c 0 -14 8.5 -22 20 -22 s 18 7.5 18 21.5 v 45.5 h 18.5 v 1 Z" stroke-linecap="round" />
</g>
		<g transform="matrix(1 0 0 1 342.928 363.9441)" style="" id="Layer_2"  >
		<text xml:space="preserve" font-family="MarkPro-Medium, 'Mark Pro'" font-size="72" font-style="normal" font-weight="500" style="stroke: none; stroke-width: 1; stroke-dasharray: none; stroke-linecap: butt; stroke-dashoffset: 0; stroke-linejoin: miter; stroke-miterlimit: 4; is-custom-font: none; font-file-url: none; fill: rgb(0,0,0); fill-rule: nonzero; opacity: 1; white-space: pre;" ><tspan x="-41.058" y="22.6181" >uk</tspan></text>
</g>
		<g transform="matrix(1 0 0 1 402.6 378.75)" id="Livello_1-6"  >
<path style="stroke: none; stroke-width: 1; stroke-dasharray: none; stroke-linecap: butt; stroke-dashoffset: 0; stroke-linejoin: miter; stroke-miterlimit: 4; is-custom-font: none; font-file-url: none; fill: rgb(0,0,0); fill-rule: nonzero; opacity: 1;"  transform=" translate(-902.6, -878.75)" d="M 901.35 876.5 v 2 h 2 c 0.5 0 1 0 1 -0.5 c 0.5 0 0.5 -0.5 0.5 -1 s 0 -0.5 -0.5 -0.5 c 0 0 -0.5 -0.5 -1 -0.5 h -2 v 0.5 Z M 903.35 875.5 c 1 0 1.5 0 2 0.5 c 0.5 0.5 1 1 1 2 c 0 0.5 0 1 -0.5 1.5 s -1 0.5 -2 0.5 l 2.5 3 h -2 l -2.5 -3 h -0.5 v 3 h -1.5 v -7.5 h 3.5 Z M 902.85 885.5 c 1 0 1.5 0 2.5 -0.5 s 1.5 -1 2 -1.5 c 0.5 -0.5 1 -1 1.5 -2 s 0.5 -1.5 0.5 -2.5 s 0 -1.5 -0.5 -2.5 s -1 -1.5 -1.5 -2 c -0.5 -0.5 -1 -1 -2 -1.5 c -0.5 -0.5 -1.5 -0.5 -2.5 -0.5 s -1.5 0 -2.5 0.5 s -1.5 1 -2 1.5 c -0.5 0.5 -1 1.5 -1.5 2 c -0.5 1 -0.5 1.5 -0.5 2.5 s 0 1.5 0.5 2.5 s 1 1.5 1.5 2 c 0.5 0.5 1.5 1 2 1.5 c 1 0.5 1.5 0.5 2.5 0.5 M 902.85 871 c 1 0 2 0 3 0.5 c 1 0.5 2 1 2.5 1.5 s 1.5 1.5 2 2.5 c 0.5 1 0.5 2 0.5 3 s 0 2 -0.5 3 s -1 2 -2 2.5 s -1.5 1.5 -2.5 2 c -1 0.5 -2 0.5 -3 0.5 s -2.5 0 -3.5 -0.5 s -2 -1 -2.5 -2 c -0.5 -0.5 -1.5 -1.5 -2 -2.5 c -0.5 -1 -0.5 -2 -0.5 -3 s 0 -2 0.5 -3 c 0.5 -1 1 -2 2 -2.5 c 0.5 -0.5 1.5 -1.5 2.5 -1.5 c 1 -0.5 2.5 -0.5 3.5 -0.5" stroke-linecap="round" />
</g>
</g>
</g>
</svg>