<svg xmlns="http://www.w3.org/2000/svg" xmlns:xlink="http://www.w3.org/1999/xlink" version="1.1" width="1000" height="1000" viewBox="0 0 1000 1000" xml:space="preserve">
<desc>Created with Fabric.js 3.5.0</desc>
<defs>
</defs>
<rect x="0" y="0" width="100%" height="100%" fill="#ffffff"/>
<g transform="matrix(1.0008 0 0 1.0008 499.9997 499.9998)" id="963788">
<g style="" vector-effect="non-scaling-stroke">
		<g transform="matrix(1 0 0 1 0.85 329.65)" id="XMLID_1775_">
<path style="stroke: none; stroke-width: 1; stroke-dasharray: none; stroke-linecap: butt; stroke-dashoffset: 0; stroke-linejoin: miter; stroke-miterlimit: 4; is-custom-font: none; font-file-url: none; fill: rgb(0,0,0); fill-rule: nonzero; opacity: 1;" transform=" translate(-500.45, -717.65)" d="M 181.1 774.3 v -51.5 c 0 -19.7 -12 -32.6 -32.6 -32.6 c -10.3 0 -21.5 3.4 -29.2 14.6 c -6 -9.4 -14.6 -14.6 -27.5 -14.6 c -8.6 0 -17.2 2.6 -24 12 v -10.3 h -18 v 82.4 h 18 v -45.5 c 0 -14.6 7.7 -21.5 19.7 -21.5 s 18 7.7 18 21.5 v 45.5 h 18 v -45.5 c 0 -14.6 8.6 -21.5 19.7 -21.5 c 12 0 18 7.7 18 21.5 v 45.5 H 181.1 z M 448.1 691.9 h -29.2 V 667 h -18 v 24.9 h -16.3 v 16.3 h 16.3 v 37.8 c 0 18.9 7.7 30 28.3 30 c 7.7 0 16.3 -2.6 22.3 -6 l -5.2 -15.5 c -5.2 3.4 -11.2 4.3 -15.5 4.3 c -8.6 0 -12 -5.2 -12 -13.7 v -36.9 h 29.2 V 691.9 z M 600.9 690.1 c -10.3 0 -17.2 5.2 -21.5 12 v -10.3 h -18 v 82.4 h 18 v -46.4 c 0 -13.7 6 -21.5 17.2 -21.5 c 3.4 0 7.7 0.9 11.2 1.7 l 5.2 -17.2 C 609.4 690.1 604.3 690.1 600.9 690.1 L 600.9 690.1 z M 370 698.7 c -8.6 -6 -20.6 -8.6 -33.5 -8.6 c -20.6 0 -34.3 10.3 -34.3 26.6 c 0 13.7 10.3 21.5 28.3 24 l 8.6 0.9 c 9.4 1.7 14.6 4.3 14.6 8.6 c 0 6 -6.9 10.3 -18.9 10.3 c -12 0 -21.5 -4.3 -27.5 -8.6 l -8.6 13.7 c 9.4 6.9 22.3 10.3 35.2 10.3 c 24 0 37.8 -11.2 37.8 -26.6 c 0 -14.6 -11.2 -22.3 -28.3 -24.9 l -8.6 -0.9 c -7.7 -0.9 -13.7 -2.6 -13.7 -7.7 c 0 -6 6 -9.4 15.5 -9.4 c 10.3 0 20.6 4.3 25.8 6.9 L 370 698.7 L 370 698.7 z M 848.9 690.1 c -10.3 0 -17.2 5.2 -21.5 12 v -10.3 h -18 v 82.4 h 18 v -46.4 c 0 -13.7 6 -21.5 17.2 -21.5 c 3.4 0 7.7 0.9 11.2 1.7 L 861 691 C 857.5 690.1 852.4 690.1 848.9 690.1 L 848.9 690.1 z M 618.9 733.1 c 0 24.9 17.2 42.9 43.8 42.9 c 12 0 20.6 -2.6 29.2 -9.4 l -8.6 -14.6 c -6.9 5.2 -13.7 7.7 -21.5 7.7 c -14.6 0 -24.9 -10.3 -24.9 -26.6 c 0 -15.5 10.3 -25.8 24.9 -26.6 c 7.7 0 14.6 2.6 21.5 7.7 l 8.6 -14.6 c -8.6 -6.9 -17.2 -9.4 -29.2 -9.4 C 636.1 690.1 618.9 708.2 618.9 733.1 L 618.9 733.1 L 618.9 733.1 z M 785.4 733.1 v -41.2 h -18 v 10.3 c -6 -7.7 -14.6 -12 -25.8 -12 c -23.2 0 -41.2 18 -41.2 42.9 c 0 24.9 18 42.9 41.2 42.9 c 12 0 20.6 -4.3 25.8 -12 v 10.3 h 18 V 733.1 L 785.4 733.1 z M 719.3 733.1 c 0 -14.6 9.4 -26.6 24.9 -26.6 c 14.6 0 24.9 11.2 24.9 26.6 c 0 14.6 -10.3 26.6 -24.9 26.6 C 728.8 758.8 719.3 747.6 719.3 733.1 L 719.3 733.1 z M 503.9 690.1 c -24 0 -41.2 17.2 -41.2 42.9 c 0 25.8 17.2 42.9 42.1 42.9 c 12 0 24 -3.4 33.5 -11.2 l -8.6 -12.9 c -6.9 5.2 -15.5 8.6 -24 8.6 c -11.2 0 -22.3 -5.2 -24.9 -19.7 h 60.9 c 0 -2.6 0 -4.3 0 -6.9 C 542.5 707.3 527 690.1 503.9 690.1 L 503.9 690.1 L 503.9 690.1 z M 503.9 705.6 c 11.2 0 18.9 6.9 20.6 19.7 h -42.9 C 483.3 714.2 491 705.6 503.9 705.6 L 503.9 705.6 z M 951.1 733.1 v -73.8 h -18 v 42.9 c -6 -7.7 -14.6 -12 -25.8 -12 c -23.2 0 -41.2 18 -41.2 42.9 c 0 24.9 18 42.9 41.2 42.9 c 12 0 20.6 -4.3 25.8 -12 v 10.3 h 18 V 733.1 L 951.1 733.1 z M 885 733.1 c 0 -14.6 9.4 -26.6 24.9 -26.6 c 14.6 0 24.9 11.2 24.9 26.6 c 0 14.6 -10.3 26.6 -24.9 26.6 C 894.4 758.8 885 747.6 885 733.1 L 885 733.1 z M 282.4 733.1 v -41.2 h -18 v 10.3 c -6 -7.7 -14.6 -12 -25.8 -12 c -23.2 0 -41.2 18 -41.2 42.9 c 0 24.9 18 42.9 41.2 42.9 c 12 0 20.6 -4.3 25.8 -12 v 10.3 h 18 V 733.1 L 282.4 733.1 z M 215.5 733.1 c 0 -14.6 9.4 -26.6 24.9 -26.6 c 14.6 0 24.9 11.2 24.9 26.6 c 0 14.6 -10.3 26.6 -24.9 26.6 C 224.9 758.8 215.5 747.6 215.5 733.1 z" stroke-linecap="round"/>
</g>
		<g transform="matrix(1 0 0 1 -0.4 -79)" id="rect19">
<rect style="stroke: none; stroke-width: 1; stroke-dasharray: none; stroke-linecap: butt; stroke-dashoffset: 0; stroke-linejoin: miter; stroke-miterlimit: 4; is-custom-font: none; font-file-url: none; fill: rgb(255,90,0); fill-rule: nonzero; opacity: 1;" x="-135.2" y="-242.9" rx="0" ry="0" width="270.4" height="485.8"/>
</g>
		<g transform="matrix(1 0 0 1 -249.8 -79)" id="XMLID_330_">
<path style="stroke: none; stroke-width: 1; stroke-dasharray: none; stroke-linecap: butt; stroke-dashoffset: 0; stroke-linejoin: miter; stroke-miterlimit: 4; is-custom-font: none; font-file-url: none; fill: rgb(235,0,27); fill-rule: nonzero; opacity: 1;" transform=" translate(-249.8, -309)" d="M 382 309 c 0 -98.7 46.4 -186.3 117.6 -242.9 C 447.2 24.9 381.1 0 309 0 C 138.2 0 0 138.2 0 309 s 138.2 309 309 309 c 72.1 0 138.2 -24.9 190.6 -66.1 C 428.3 496.1 382 407.7 382 309 z" stroke-linecap="round"/>
</g>
		<g transform="matrix(1 0 0 1 249.8 -79)" id="path22">
<path style="stroke: none; stroke-width: 1; stroke-dasharray: none; stroke-linecap: butt; stroke-dashoffset: 0; stroke-linejoin: miter; stroke-miterlimit: 4; is-custom-font: none; font-file-url: none; fill: rgb(247,158,27); fill-rule: nonzero; opacity: 1;" transform=" translate(-749.4, -309)" d="M 999.2 309 c 0 170.8 -138.2 309 -309 309 c -72.1 0 -138.2 -24.9 -190.6 -66.1 c 72.1 -56.7 117.6 -144.2 117.6 -242.9 S 570.8 122.7 499.6 66.1 C 551.9 24.9 618 0 690.1 0 C 861 0 999.2 139.1 999.2 309 z" stroke-linecap="round"/>
</g>
</g>
</g>
</svg>