<svg xmlns="http://www.w3.org/2000/svg" xmlns:xlink="http://www.w3.org/1999/xlink" version="1.1" width="1000" height="1000" viewBox="0 0 1000 1000" xml:space="preserve">
<desc>Created with Fabric.js 3.5.0</desc>
<defs>
</defs>
<rect x="0" y="0" width="100%" height="100%" fill="#ffffff"/>
<g transform="matrix(1 0 0 0.91 500 499.9999)" id="682825">
<path style="stroke: none; stroke-width: 1; stroke-dasharray: none; stroke-linecap: butt; stroke-dashoffset: 0; stroke-linejoin: miter; stroke-miterlimit: 4; is-custom-font: none; font-file-url: none; fill: rgb(20,52,203); fill-rule: nonzero; opacity: 1;" vector-effect="non-scaling-stroke" transform=" translate(-500, -162.345)" d="m 651.19 0.5 c -70.93 0 -134.32 36.77 -134.32 104.69 c 0 77.9 112.42 83.28 112.42 122.42 c 0 16.48 -18.88 31.23 -51.14 31.23 c -45.77 0 -79.98 -20.61 -79.98 -20.61 l -14.64 68.55 s 39.41 17.41 91.73 17.41 c 77.55 0 138.58 -38.57 138.58 -107.66 c 0 -82.32 -112.89 -87.54 -112.89 -123.86 c 0 -12.91 15.5 -27.05 47.66 -27.05 c 36.29 0 65.89 14.99 65.89 14.99 l 14.33 -66.2 S 696.61 0.5 651.18 0.5 h 0 Z M 2.22 5.5 L 0.5 15.49 s 29.84 5.46 56.72 16.36 c 34.61 12.49 37.07 19.77 42.9 42.35 l 63.51 244.83 h 85.14 L 379.93 5.5 h -84.94 l -84.28 213.17 l -34.39 -180.7 c -3.15 -20.68 -19.13 -32.48 -38.68 -32.48 c 0 0 -135.41 0 -135.41 0 Z m 411.87 0 l -66.63 313.53 h 81 L 494.85 5.5 h -80.76 Z m 451.76 0 c -19.53 0 -29.88 10.46 -37.47 28.73 l -118.67 284.8 h 84.94 l 16.43 -47.47 h 103.48 l 9.99 47.47 h 74.95 L 934.12 5.5 h -68.27 Z m 11.05 84.71 l 25.18 117.65 h -67.45 l 42.28 -117.65 h 0 Z" stroke-linecap="round"/>
</g>
</svg>