<svg xmlns="http://www.w3.org/2000/svg" xmlns:xlink="http://www.w3.org/1999/xlink" version="1.1" width="1000" height="1000" viewBox="0 0 1000 1000" xml:space="preserve">
<desc>Created with Fabric.js 3.5.0</desc>
<defs>
</defs>
<rect x="0" y="0" width="100%" height="100%" fill="#ffffff"/>
<g transform="matrix(3.9023 0 0 3.9088 499.9944 499.9998)" id="753103">
<path style="stroke: none; stroke-width: 1; stroke-dasharray: none; stroke-linecap: butt; stroke-dashoffset: 0; stroke-linejoin: miter; stroke-miterlimit: 4; is-custom-font: none; font-file-url: none; fill: rgb(26,31,113); fill-rule: nonzero; opacity: 1;" vector-effect="non-scaling-stroke" transform=" translate(-128, -56.9783)" d="m 97.196506 1.45967206 l -33.5152475 79.95831844 h -21.8672932 l -16.4944577 -63.8136589 c -0.998723 -3.9213362 -1.8683148 -5.3646626 -4.9118864 -7.0221178 c -4.9740001 -2.70194615 -13.1877203 -5.2289932 -20.4076212 -6.80145066 l 0.48710221 -2.32109108 h 35.20375959 c 4.4803596 0 8.5144812 2.98309241 9.5393574 8.14833734 l 8.7155333 46.2730756 l 21.5158605 -54.42141294 z m 29.56122 0 l -17.104153 79.95831844 h -20.687133 l 17.104153 -79.95831844 z m 56.114829 53.85258194 c 0.086632 -21.0990446 -29.173827 -22.2693976 -28.982582 -31.6976042 c 0.070287 -2.8654033 2.800021 -5.9171477 8.776013 -6.6968381 c 2.960208 -0.3824896 11.137968 -0.6881545 20.401083 3.5797109 l 3.623844 -16.96521428 c -4.97727 -1.79966287 -11.38152 -3.53230832 -19.34842 -3.53230832 c -20.45012 0 -34.83598 10.8617255 -34.9504 26.4277468 c -0.134035 11.5139194 10.274914 17.9312459 18.102875 21.7659499 c 8.06334 3.9164323 10.766921 6.4336723 10.729326 9.9332888 c -0.05721 5.364663 -6.438576 7.739695 -12.372069 7.8279615 c -10.404046 0.165092 -16.435614 -2.8114625 -21.246156 -5.0524595 l -3.75461 17.527507 c 4.839965 2.218113 13.759819 4.1452725 22.998416 4.2433465 c 21.739797 0 35.958932 -10.737498 36.02268 -27.361087 z m 54.001328 26.1057365 h 19.126117 l -16.710221 -79.95831844 h -17.64683 c -3.980181 0 -7.324514 2.30964908 -8.808704 5.86157224 l -31.040507 74.0967462 h 21.723451 l 4.308729 -11.9438115 h 26.540533 z m -23.091587 -28.328753 l 10.892782 -30.0270727 l 6.257139 30.0270727 z m -60.549911 50.3379275 h -8.404965 v 7.823057 h 9.402054 v 2.352148 h -12.234766 v -21.703836 h 11.752567 v 2.352148 h -8.919855 v 6.857026 h 8.404965 z m 5.339326 -12.686561 h 2.832713 v 22.861112 h -2.832713 z m 9.978567 15.583511 c 0.063748 3.833069 2.479645 5.41043 5.343413 5.41043 c 2.030138 0 3.285489 -0.354702 4.316903 -0.804209 l 0.51489 2.028503 c -0.998723 0.449507 -2.736272 0.997089 -5.217551 0.997089 c -4.795832 0 -7.661235 -3.187414 -7.661235 -7.888441 s 2.767328 -8.372273 7.308167 -8.372273 c 5.119477 0 6.440211 4.444399 6.440211 7.309802 c 0 0.578638 -0.032691 0.997088 -0.098074 1.319099 z m 8.306891 -2.028503 c 0.032691 -1.77024 -0.740461 -4.5718955 -3.927875 -4.5718955 c -2.898094 0 -4.122388 2.6087755 -4.347959 4.5718955 z m 18.154201 8.758686 c -0.740461 0.354702 -2.383205 0.902283 -4.475456 0.902283 c -4.701026 0 -7.759309 -3.187413 -7.759309 -7.953823 c 0 -4.797466 3.282219 -8.3068905 8.370639 -8.3068905 c 1.673801 0 3.154722 0.416816 3.927875 0.8369005 l -0.642387 2.157634 c -0.678347 -0.354702 -1.740818 -0.7420955 -3.285488 -0.7420955 c -3.574807 0 -5.505235 2.6725235 -5.505235 5.8942635 c 0 3.605864 2.317822 5.827246 5.408795 5.827246 c 1.610053 0 2.672525 -0.385758 3.476733 -0.74046 z m 7.947776 -18.772069 v 3.7349955 h 4.055371 v 2.1559995 h -4.055371 v 8.404964 c 0 1.933699 0.547582 3.027226 2.124943 3.027226 c 0.771517 0 1.224294 -0.063748 1.642744 -0.194514 l 0.129131 2.159269 c -0.547581 0.192879 -1.417173 0.385759 -2.512336 0.385759 c -1.320734 0 -2.383205 -0.451142 -3.058283 -1.189968 c -0.773152 -0.871226 -1.095162 -2.254073 -1.095162 -4.089697 v -8.503039 h -2.415897 v -2.1559995 h 2.415897 v -2.898095 z m 8.013322 8.597517 c 0 -1.835623 -0.034326 -3.412984 -0.129131 -4.8628485 h 2.479644 l 0.129131 3.0909745 h 0.094806 c 0.709403 -2.0922515 2.446953 -3.412985 4.346324 -3.412985 c 0.290954 0 0.516525 0.0326915 0.774787 0.063748 v 2.674159 c -0.290954 -0.065383 -0.578638 -0.065383 -0.967666 -0.065383 c -1.994177 0 -3.412985 1.480921 -3.798744 3.607498 c -0.063748 0.385759 -0.096439 0.867957 -0.096439 1.320734 v 8.306891 h -2.832712 z m 25.110772 2.800838 c 0 5.763498 -4.025949 8.275834 -7.760944 8.275834 c -4.186136 0 -7.468355 -3.092608 -7.468355 -8.017572 c 0 -5.184859 3.444041 -8.243142 7.726618 -8.243142 c 4.475455 0 7.502681 3.251162 7.502681 7.98488 z m -12.332839 0.161823 c 0 3.412985 1.932063 5.989068 4.701026 5.989068 c 2.705216 0 4.732085 -2.545026 4.732085 -6.054451 c 0 -2.639832 -1.3191 -5.958012 -4.668336 -5.958012 c -3.31491 0 -4.764775 3.092609 -4.764775 6.023395 z m 16.674588 -3.607662 c 0 -1.641109 -0.034327 -2.9291515 -0.129131 -4.217194 h 2.5107 l 0.161823 2.576085 h 0.063748 c 0.773153 -1.449865 2.576085 -2.8980955 5.152169 -2.8980955 c 2.155999 0 5.505236 1.2880425 5.505236 6.6314555 v 9.274557 h -2.832712 v -8.983603 c 0 -2.510701 -0.93334 -4.604587 -3.605864 -4.604587 c -1.835623 0 -3.285488 1.320733 -3.798744 2.898095 c -0.130765 0.354702 -0.194514 0.8369 -0.194514 1.320733 v 9.369362 h -2.832711 z" stroke-linecap="round"/>
</g>
</svg>